HIERARCHY
ROOT Hips
{
 OFFSET 0.000000 0.000000 0.000000
 CHANNELS 6 Xposition Yposition Zposition Yrotation Xrotation Zrotation
 JOINT Chest
 {
  OFFSET 0.000000 9.585900 0.002600
  CHANNELS 3 Yrotation Xrotation Zrotation
  JOINT Chest2
  {
   OFFSET 0.000000 9.601200 -0.005300
   CHANNELS 3 Yrotation Xrotation Zrotation
   JOINT Chest3
   {
    OFFSET 0.000000 9.561800 0.000000
    CHANNELS 3 Yrotation Xrotation Zrotation
    JOINT Chest4
    {
     OFFSET 0.000000 9.552100 0.000000
     CHANNELS 3 Yrotation Xrotation Zrotation
     JOINT Neck
     {
      OFFSET 0.000000 14.453000 0.000000
      CHANNELS 3 Yrotation Xrotation Zrotation
      JOINT Head
      {
       OFFSET 0.000000 8.936500 -0.011300
       CHANNELS 3 Yrotation Xrotation Zrotation
       End Site
       {
        OFFSET 0.000000 17.073600 -0.006000
       }
      }
     }
     JOINT RightCollar
     {
      OFFSET -2.921100 9.558500 0.000000
      CHANNELS 3 Yrotation Xrotation Zrotation
      JOINT RightShoulder
      {
       OFFSET -13.519700 0.000000 0.000000
       CHANNELS 3 Yrotation Xrotation Zrotation
       JOINT RightElbow
       {
        OFFSET 0.000000 -29.696600 0.000000
        CHANNELS 3 Yrotation Xrotation Zrotation
        JOINT RightWrist
        {
         OFFSET 0.000000 -24.004700 0.000000
         CHANNELS 3 Yrotation Xrotation Zrotation
         End Site
         {
          OFFSET 0.000000 -17.728500 0.000000
         }
        }
       }
      }
     }
     JOINT LeftCollar
     {
      OFFSET 2.921100 9.558500 0.000000
      CHANNELS 3 Yrotation Xrotation Zrotation
      JOINT LeftShoulder
      {
       OFFSET 13.519700 0.000000 0.000000
       CHANNELS 3 Yrotation Xrotation Zrotation
       JOINT LeftElbow
       {
        OFFSET 0.000000 -29.696600 0.000000
        CHANNELS 3 Yrotation Xrotation Zrotation
        JOINT LeftWrist
        {
         OFFSET 0.000000 -24.004700 0.000000
         CHANNELS 3 Yrotation Xrotation Zrotation
         End Site
         {
          OFFSET 0.000000 -17.728500 0.000000
         }
        }
       }
      }
     }
    }
   }
  }
 }
 JOINT RightHip
 {
  OFFSET -7.771700 -0.012900 -0.001300
  CHANNELS 3 Yrotation Xrotation Zrotation
  JOINT RightKnee
  {
   OFFSET 0.000000 -40.869800 0.001200
   CHANNELS 3 Yrotation Xrotation Zrotation
   JOINT RightAnkle
   {
    OFFSET 0.000000 -39.717900 0.002100
    CHANNELS 3 Yrotation Xrotation Zrotation
    JOINT RightToe
    {
     OFFSET 0.000000 -4.965400 11.033500
     CHANNELS 3 Yrotation Xrotation Zrotation
     End Site
     {
      OFFSET 0.000000 -1.423100 5.872300
     }
    }
   }
  }
 }
 JOINT LeftHip
 {
  OFFSET 7.771700 -0.012900 -0.001300
  CHANNELS 3 Yrotation Xrotation Zrotation
  JOINT LeftKnee
  {
   OFFSET 0.000000 -40.869800 0.001200
   CHANNELS 3 Yrotation Xrotation Zrotation
   JOINT LeftAnkle
   {
    OFFSET 0.000000 -39.717900 0.002100
    CHANNELS 3 Yrotation Xrotation Zrotation
    JOINT LeftToe
    {
     OFFSET 0.000000 -4.965400 11.033500
     CHANNELS 3 Yrotation Xrotation Zrotation
     End Site
     {
      OFFSET 0.000000 -1.423100 5.872300
     }
    }
   }
  }
 }
}
MOTION
Frames: 13
Frame Time: 0.008333
0.000000 85.388000 0.000000 0.000000 -5.767877 0.000000 0.000000 11.653817 0.000000 0.000000 -5.885947 0.000000 0.000000 -0.000000 0.000000 0.000000 -0.000000 0.000000 0.000000 12.528835 0.000000 0.000000 0.711642 0.000000 0.000000 -0.000000 0.000000 0.000000 0.000000 -90.000000 0.000000 -2.309062 0.000000 0.000000 2.309062 0.000000 0.000000 -0.000000 0.000000 0.000000 -0.000000 90.000000 0.000000 -2.309062 0.000000 0.000000 2.309062 0.000000 0.000000 8.520406 0.000000 0.000000 1.905762 0.000000 -0.000000 -4.658285 0.000000 0.000000 -0.000000 0.000000 0.000000 8.520406 0.000000 0.000000 1.905762 0.000000 -0.000000 -4.658285 0.000000 0.000000 -0.000000 0.000000
-25.792206 52.227216 27.498115 179.384473 -29.404358 0.736540 1.448507 29.002329 -3.065520 0.377371 5.382734 -0.425995 0.614528 8.528643 -0.684938 1.475797 23.326380 -1.710281 6.055691 20.166073 -8.856688 8.869906 -3.494194 -11.359341 14.418805 12.380098 14.344223 30.979597 -15.835930 -44.531780 -123.251682 -57.911951 64.089632 -16.504794 -15.046186 0.740291 -13.477467 14.350302 -19.173519 -33.150241 -13.082525 47.253377 139.444100 -43.277789 -90.843707 22.584948 -8.234870 3.393853 -8.016089 -53.132120 0.030395 -59.483544 81.109457 -67.984019 -3.440229 -5.299475 7.321208 -0.183270 -0.950464 -0.034189 -1.267830 -50.369060 -0.967072 32.489442 82.352425 37.182477 -1.189998 -9.885377 -4.811271 0.699703 0.658349 0.316822
-25.798154 52.227952 27.504075 179.451787 -29.342458 0.727490 1.396368 28.983278 -3.100098 0.378861 5.387594 -0.427691 0.652685 8.605395 -0.710950 1.487373 23.309068 -1.700392 6.061523 20.189272 -8.896971 8.887875 -3.461585 -11.408855 14.400525 12.296805 14.355955 30.984425 -15.712352 -44.523896 -123.329482 -57.942397 64.148684 -16.135700 -14.854034 -0.355761 -13.478495 14.321780 -19.168170 -33.203303 -13.013120 47.120627 139.487244 -43.470659 -90.760737 22.413495 -8.070715 3.840530 -8.041982 -53.195265 0.003885 -59.455087 81.107724 -67.966909 -3.457773 -5.274738 7.320748 -0.169768 -0.994009 -0.038812 -1.337959 -50.428362 -0.965976 32.265111 82.346481 36.938268 -1.235551 -9.895732 -4.832100 0.761157 0.686987 0.343980
-25.803894 52.228354 27.511056 179.500339 -29.267901 0.723055 1.363931 28.950517 -3.128776 0.439291 5.495647 -0.458340 0.630843 8.546950 -0.686935 1.504932 23.316640 -1.699331 6.063118 20.209111 -8.934054 8.900074 -3.433644 -11.453353 14.392394 12.251782 14.346740 30.990770 -15.629620 -44.503242 -123.455583 -58.038346 64.243794 -15.750512 -14.603697 -1.356548 -13.476293 14.292533 -19.161700 -33.243207 -12.949510 46.968214 139.539610 -43.686217 -90.709334 22.250794 -7.843999 4.117863 -8.037084 -53.267277 -0.023456 -59.429861 81.101609 -67.952514 -3.474194 -5.287938 7.339658 -0.170131 -0.979341 -0.033261 -1.434057 -50.493330 -0.933086 31.819594 82.343255 36.456240 -1.209945 -9.874711 -4.844799 0.783000 0.696962 0.351832
-25.805867 52.229075 27.517211 179.546835 -29.193893 0.694003 1.372758 28.955815 -3.123515 0.433867 5.478753 -0.451732 0.653301 8.569011 -0.689175 1.522825 23.322449 -1.695441 6.062029 20.224570 -8.966687 8.907855 -3.411681 -11.491856 14.423145 12.243700 14.316448 30.956149 -15.604957 -44.461696 -123.612855 -58.210505 64.377646 -15.357870 -14.283205 -2.251510 -13.470745 14.263561 -19.154702 -33.271348 -12.886026 46.798225 139.611620 -43.931911 -90.704772 22.090608 -7.552052 4.256104 -8.065518 -53.338203 -0.013937 -59.438718 81.095544 -67.954623 -3.495326 -5.294455 7.333682 -0.153509 -0.972956 -0.018944 -1.502632 -50.565841 -0.903621 31.617279 82.338191 36.249027 -1.195817 -9.854816 -4.847192 0.766543 0.709277 0.347524
-25.807546 52.230138 27.521984 179.592980 -29.124802 0.660644 1.436881 29.013909 -3.089628 0.370457 5.394222 -0.435884 0.672849 8.588317 -0.691534 1.556338 23.342814 -1.693467 6.059450 20.236428 -8.993641 8.912336 -3.394775 -11.523232 14.426279 12.212290 14.306790 30.924727 -15.547859 -44.406384 -123.785464 -58.465149 64.542107 -14.961271 -13.889008 -3.022341 -13.480035 14.228672 -19.134377 -33.264034 -12.826794 46.598027 139.704652 -44.208442 -90.751394 21.926582 -7.203327 4.281580 -8.060063 -53.396476 -0.026178 -59.445951 81.080365 -67.939723 -3.504911 -5.311755 7.339877 -0.140609 -0.961245 -0.015023 -1.576999 -50.633710 -0.866154 31.453914 82.333310 36.078951 -1.182376 -9.836353 -4.847359 0.759262 0.713879 0.342846
-25.814443 52.231615 27.524910 179.625748 -29.064403 0.662748 1.471882 29.037779 -3.086991 0.359577 5.384388 -0.437236 0.633409 8.536349 -0.678844 1.580625 23.360800 -1.694248 6.087530 20.277074 -9.031001 8.913827 -3.381995 -11.548837 14.444353 12.210791 14.296025 30.894597 -15.479505 -44.336757 -123.972887 -58.803676 64.741829 -14.555173 -13.428091 -3.648391 -13.492828 14.207960 -19.117645 -33.198620 -12.776284 46.359252 139.818546 -44.511199 -90.850276 21.753087 -6.809153 4.218865 -8.064722 -53.457567 -0.045417 -59.408050 81.087267 -67.931332 -3.497291 -5.317222 7.376244 -0.165814 -0.964479 -0.029139 -1.641758 -50.688657 -0.843920 31.315704 82.323315 35.904422 -1.180611 -9.819312 -4.846440 0.760386 0.717781 0.343948
-25.818817 52.232902 27.526668 179.662013 -29.008984 0.646224 1.469687 29.013847 -3.077553 0.436530 5.461048 -0.439735 0.645006 8.538113 -0.673726 1.514143 23.287684 -1.674811 6.119564 20.305039 -9.057707 8.912239 -3.373910 -11.569767 14.461413 12.210755 14.290403 30.855550 -15.416371 -44.255173 -124.161825 -59.223365 64.967805 -14.152669 -12.929047 -4.110985 -13.382482 14.223316 -19.162211 -33.256585 -12.665553 46.194202 139.952484 -44.847808 -91.002840 21.574280 -6.377198 4.084467 -8.065610 -53.508559 -0.059194 -59.393423 81.091865 -67.912809 -3.520233 -5.327285 7.379436 -0.157861 -0.960670 -0.022285 -1.683278 -50.742059 -0.832122 31.208064 82.314732 35.789619 -1.171587 -9.796937 -4.842042 0.749178 0.715408 0.339605
-25.822596 52.233606 27.527872 179.704842 -28.954811 0.621405 1.513843 29.029382 -3.034753 0.424164 5.448730 -0.438483 0.670950 8.548810 -0.666653 1.580814 23.314596 -1.652229 6.059772 20.263811 -9.054629 8.906534 -3.371660 -11.584543 14.351290 12.134536 14.305187 30.821586 -15.330240 -44.161442 -124.318089 -59.715335 65.194185 -13.791355 -12.443655 -4.395552 -13.392605 14.170951 -19.133632 -33.252587 -12.566922 45.988392 140.097489 -45.225966 -91.205006 21.392536 -5.914906 3.878449 -8.076805 -53.555943 -0.068063 -59.374899 81.098194 -67.886491 -3.546588 -5.340928 7.386283 -0.147483 -0.954050 -0.020194 -1.733868 -50.795855 -0.812915 31.121079 82.307933 35.698226 -1.171673 -9.779859 -4.839857 0.743961 0.715379 0.337251
-25.824475 52.233385 27.529092 179.746299 -28.897992 0.584478 1.572309 29.036922 -2.970012 0.414335 5.434909 -0.434683 0.678109 8.547602 -0.659902 1.625989 23.325171 -1.627418 6.027860 20.248034 -9.060001 8.861893 -3.386264 -11.569029 14.267769 12.095991 14.310306 30.788441 -15.300554 -44.113956 -124.300005 -60.246104 65.289952 -13.493251 -12.011984 -4.504957 -13.390177 14.135250 -19.111827 -33.209599 -12.473914 45.764378 140.243461 -45.644435 -91.447378 21.202583 -5.437993 3.595445 -8.107135 -53.607245 -0.052144 -59.389220 81.099132 -67.887885 -3.575606 -5.344694 7.385666 -0.121738 -0.954498 -0.015588 -1.798913 -50.855199 -0.772595 31.063594 82.306764 35.636361 -1.166453 -9.769776 -4.837393 0.734283 0.717196 0.333718
-25.826900 52.232289 27.530335 179.797471 -28.838287 0.544825 1.572319 29.001345 -2.933291 0.472222 5.467600 -0.420226 0.668271 8.534719 -0.652277 1.651744 23.323793 -1.600027 6.008546 20.239000 -9.068023 8.811867 -3.394116 -11.556574 14.218567 12.091938 14.304854 30.663523 -15.206712 -43.981398 -124.542651 -60.788214 65.688966 -13.244736 -11.650320 -4.464667 -13.367789 14.103341 -19.095008 -33.158438 -12.370834 45.535055 140.391765 -46.104906 -91.725172 21.003175 -4.964209 3.233792 -8.100992 -53.657813 -0.066367 -59.437229 81.090949 -67.898568 -3.621748 -5.356334 7.380781 -0.073946 -0.946619 -0.008444 -1.862616 -50.917184 -0.741847 30.951484 82.305604 35.522286 -1.148044 -9.757905 -4.830277 0.719929 0.719840 0.327327
-25.829896 52.230505 27.531392 179.816635 -28.776282 0.522948 1.658719 28.997589 -2.856578 0.421259 5.434739 -0.428657 0.716769 8.551390 -0.633201 1.679673 23.321027 -1.568523 5.983761 20.226365 -9.074995 8.789735 -3.393465 -11.563987 14.212407 12.116321 14.299468 30.458381 -15.129850 -43.853997 -124.881707 -61.289797 66.223945 -13.020651 -11.362068 -4.310011 -13.342190 14.068267 -19.075252 -33.109698 -12.250865 45.302179 140.552615 -46.611115 -92.036267 20.798931 -4.501093 2.798979 -8.124794 -53.716254 -0.043411 -59.455993 81.100069 -67.926443 -3.626148 -5.401835 7.400961 -0.087768 -0.907242 -0.009289 -1.879463 -50.989076 -0.730169 30.854674 82.311465 35.426518 -1.073289 -9.689594 -4.798032 0.646551 0.674465 0.293930
-25.835993 52.230145 27.528624 179.849090 -28.736685 0.512618 1.726351 29.015146 -2.791053 0.427766 5.431043 -0.419927 0.705363 8.536552 -0.625796 1.709020 23.316092 -1.533218 5.954318 20.211516 -9.081415 8.801126 -3.418751 -11.590375 14.162403 12.132554 14.296991 30.279750 -15.038987 -43.746355 -125.241474 -61.763729 66.808660 -12.825170 -11.136528 -4.063620 -13.313512 14.032013 -19.052602 -33.073527 -12.111301 45.070879 140.731683 -47.156925 -92.373001 20.595464 -4.051439 2.302689 -8.132418 -53.755305 -0.056251 -59.487459 81.109425 -67.966040 -3.640101 -5.412928 7.412230 -0.078246 -0.904366 -0.006088 -1.893318 -51.033847 -0.740209 30.777341 82.318873 35.345864 -1.050511 -9.666639 -4.782660 0.625370 0.661907 0.284861
